<svg width="1024" height="1024" viewBox="0 0 1024 1024" xmlns="http://www.w3.org/2000/svg">
  <!-- Background Circle -->
  <circle cx="512" cy="512" r="512" fill="#007AFF"/>
  
  <!-- Inner Circle -->
  <circle cx="512" cy="512" r="400" fill="#ffffff" opacity="0.1"/>
  
  <!-- Main Icon - Dollar Sign with Chart -->
  <g transform="translate(512, 512)">
    <!-- Dollar Sign -->
    <path d="M-80 -200 L-80 200 M-80 -100 L80 -100 M-80 100 L80 100" 
          stroke="#ffffff" 
          stroke-width="24" 
          stroke-linecap="round" 
          fill="none"/>
    
    <!-- Chart Bars -->
    <rect x="-200" y="-50" width="40" height="100" fill="#ffffff" opacity="0.8"/>
    <rect x="-140" y="-80" width="40" height="130" fill="#ffffff" opacity="0.9"/>
    <rect x="-80" y="-120" width="40" height="170" fill="#ffffff"/>
    <rect x="-20" y="-90" width="40" height="140" fill="#ffffff" opacity="0.9"/>
    <rect x="40" y="-110" width="40" height="150" fill="#ffffff" opacity="0.8"/>
    <rect x="100" y="-70" width="40" height="110" fill="#ffffff" opacity="0.7"/>
    
    <!-- Trend Line -->
    <path d="M-200 -50 L-140 -80 L-80 -120 L-20 -90 L40 -110 L100 -70" 
          stroke="#ffffff" 
          stroke-width="6" 
          stroke-linecap="round" 
          fill="none" 
          opacity="0.9"/>
    
    <!-- Trend Arrow -->
    <path d="M90 -80 L110 -60 L90 -40" 
          stroke="#ffffff" 
          stroke-width="6" 
          stroke-linecap="round" 
          stroke-linejoin="round" 
          fill="none"/>
  </g>
  
  <!-- Subtle Pattern -->
  <circle cx="200" cy="200" r="2" fill="#ffffff" opacity="0.3"/>
  <circle cx="824" cy="200" r="2" fill="#ffffff" opacity="0.3"/>
  <circle cx="200" cy="824" r="2" fill="#ffffff" opacity="0.3"/>
  <circle cx="824" cy="824" r="2" fill="#ffffff" opacity="0.3"/>
</svg>
